<svg xmlns="http://www.w3.org/2000/svg" width="22" height="30" viewBox="0 0 22 30">
  <path id="bookmark-2" d="M20.777,30a1.213,1.213,0,0,1-.714-.231L10.993,23.2,1.937,29.757a1.2,1.2,0,0,1-1.271.1A1.226,1.226,0,0,1,0,28.757V4.147A4.111,4.111,0,0,1,3.485.014,1.242,1.242,0,0,1,3.668,0H18.332a1.194,1.194,0,0,1,.181.014A4.122,4.122,0,0,1,22,4.189V28.769A1.224,1.224,0,0,1,20.777,30ZM19.554,17.006l-6.468,4.683,6.468,4.682ZM3.771,2.461h0A1.654,1.654,0,0,0,2.445,4.122V26.357L19.554,13.975V4.159a1.673,1.673,0,0,0-1.326-1.7H3.771Z" transform="translate(0)" fill="#8f9bb3" opacity="0.5"/>
</svg>
