<svg xmlns="http://www.w3.org/2000/svg" xmlns:xlink="http://www.w3.org/1999/xlink" width="29.996" height="30" viewBox="0 0 29.996 30">
  <defs>
    <clipPath id="clip-path">
      <path id="Clip_2" data-name="Clip 2" d="M0,0H30V30H0Z" transform="translate(0.004)" fill="none"/>
    </clipPath>
  </defs>
  <g id="messenger" transform="translate(-0.004)" opacity="0.5">
    <path id="Clip_2-2" data-name="Clip 2" d="M0,0H30V30H0Z" transform="translate(0.004)" fill="none"/>
    <g id="messenger-2" data-name="messenger" clip-path="url(#clip-path)">
      <path id="Fill_1" data-name="Fill 1" d="M1.172,30a1.184,1.184,0,0,1-.83-.343,1.167,1.167,0,0,1-.286-1.188l1.932-6a15,15,0,1,1,5.544,5.544l-6,1.933A1.168,1.168,0,0,1,1.172,30Zm6.506-4.44a1.17,1.17,0,0,1,.622.179A12.659,12.659,0,1,0,4.261,21.7a1.172,1.172,0,0,1,.122.981L2.988,27.013l4.333-1.4A1.168,1.168,0,0,1,7.679,25.56Zm13.18-9.1A1.465,1.465,0,1,1,22.324,15,1.466,1.466,0,0,1,20.859,16.465Zm-5.859,0A1.465,1.465,0,1,1,16.465,15,1.466,1.466,0,0,1,15,16.465Zm-5.86,0A1.465,1.465,0,1,1,10.606,15,1.466,1.466,0,0,1,9.14,16.465Z" fill="#8f9bb3"/>
    </g>
  </g>
</svg>
