<svg xmlns="http://www.w3.org/2000/svg" width="18" height="24" viewBox="0 0 18 24">
  <path id="notification" d="M9,24a3.829,3.829,0,0,1-3.744-3.188H.692A.7.7,0,0,1,0,20.11V17.3a.705.705,0,0,1,.309-.585l1.075-.729V9.656A7.775,7.775,0,0,1,3.392,4.428,7.554,7.554,0,0,1,8.308,1.954V.7A.692.692,0,1,1,9.692.7V1.954a7.555,7.555,0,0,1,4.915,2.474,7.775,7.775,0,0,1,2.008,5.228v6.327l1.075.729A.705.705,0,0,1,18,17.3V20.11a.7.7,0,0,1-.692.7H12.744A3.829,3.829,0,0,1,9,24ZM6.675,20.813a2.408,2.408,0,0,0,4.649,0ZM9,3.328A6.287,6.287,0,0,0,2.769,9.656v6.7a.705.705,0,0,1-.309.585l-1.076.729v1.733H16.616V17.673l-1.076-.729a.705.705,0,0,1-.309-.585v-6.7A6.287,6.287,0,0,0,9,3.328Z" transform="translate(0 0)" fill="#8f9bb3"/>
</svg>
