<svg xmlns="http://www.w3.org/2000/svg" xmlns:xlink="http://www.w3.org/1999/xlink" width="30" height="29.995" viewBox="0 0 30 29.995">
  <defs>
    <clipPath id="clip-path">
      <path id="Clip_2" data-name="Clip 2" d="M0,0H30V30H0Z" fill="none"/>
    </clipPath>
  </defs>
  <g id="settings" opacity="0.5">
    <g id="Group_3" data-name="Group 3">
      <path id="Clip_2-2" data-name="Clip 2" d="M0,0H30V30H0Z" fill="none"/>
      <g id="Group_3-2" data-name="Group 3" clip-path="url(#clip-path)">
        <path id="Fill_1" data-name="Fill 1" d="M15.942,30H14.059A2.765,2.765,0,0,1,11.3,27.239V26.6a12.244,12.244,0,0,1-1.881-.78l-.451.451a2.762,2.762,0,0,1-3.906,0L3.728,24.941a2.762,2.762,0,0,1,0-3.906l.451-.451A12.13,12.13,0,0,1,3.4,18.7H2.762A2.765,2.765,0,0,1,0,15.942V14.059A2.765,2.765,0,0,1,2.762,11.3H3.4A12.16,12.16,0,0,1,4.18,9.416l-.452-.451a2.762,2.762,0,0,1,0-3.906l1.33-1.331a2.761,2.761,0,0,1,3.906,0l.451.451A12.159,12.159,0,0,1,11.3,3.4V2.762A2.765,2.765,0,0,1,14.059,0h1.883A2.765,2.765,0,0,1,18.7,2.762V3.4a12.13,12.13,0,0,1,1.881.781l.451-.452a2.763,2.763,0,0,1,3.907,0l1.33,1.33a2.761,2.761,0,0,1,0,3.906l-.451.451A12.245,12.245,0,0,1,26.6,11.3h.637A2.765,2.765,0,0,1,30,14.059v1.883A2.764,2.764,0,0,1,27.239,18.7H26.6a12.214,12.214,0,0,1-.78,1.881l.451.451a2.763,2.763,0,0,1,0,3.907l-1.331,1.33a2.761,2.761,0,0,1-3.906,0l-.451-.451a12.214,12.214,0,0,1-1.881.78v.637A2.764,2.764,0,0,1,15.942,30ZM9.27,23.851a.853.853,0,0,1,.44.124A10.358,10.358,0,0,0,12.4,25.089a.88.88,0,0,1,.659.851v1.3a1,1,0,0,0,1,1h1.883a1,1,0,0,0,1-1v-1.3a.88.88,0,0,1,.66-.851,10.376,10.376,0,0,0,2.686-1.114.877.877,0,0,1,1.068.135l.919.919a1,1,0,0,0,1.42,0L25.029,23.7a1,1,0,0,0,0-1.419l-.92-.92a.879.879,0,0,1-.135-1.069A10.355,10.355,0,0,0,25.089,17.6a.88.88,0,0,1,.851-.66h1.3a1,1,0,0,0,1-1V14.059a1,1,0,0,0-1-1h-1.3a.88.88,0,0,1-.851-.659A10.376,10.376,0,0,0,23.975,9.71a.879.879,0,0,1,.135-1.069l.919-.919a1,1,0,0,0,0-1.419L23.7,4.971a1,1,0,0,0-1.419,0l-.92.92a.878.878,0,0,1-1.068.135A10.347,10.347,0,0,0,17.6,4.91a.878.878,0,0,1-.66-.851v-1.3a1,1,0,0,0-1-1H14.059a1.006,1.006,0,0,0-1,1v1.3a.878.878,0,0,1-.659.851A10.347,10.347,0,0,0,9.71,6.026a.883.883,0,0,1-.448.122.873.873,0,0,1-.622-.257l-.919-.92a1,1,0,0,0-1.419,0L4.971,6.3a1,1,0,0,0,0,1.42l.92.919A.88.88,0,0,1,6.026,9.71,10.33,10.33,0,0,0,4.91,12.4a.878.878,0,0,1-.851.659h-1.3a1.006,1.006,0,0,0-1,1v1.883a1,1,0,0,0,1,1h1.3a.878.878,0,0,1,.851.66A10.327,10.327,0,0,0,6.026,20.29a.88.88,0,0,1-.135,1.069l-.92.919a1,1,0,0,0,0,1.42L6.3,25.029a1,1,0,0,0,1.42,0l.919-.919A.918.918,0,0,1,9.27,23.851Z" fill="#8f9bb3"/>
      </g>
    </g>
    <path id="Fill_4" data-name="Fill 4" d="M6.528,13.055a6.527,6.527,0,1,1,6.527-6.527A6.535,6.535,0,0,1,6.528,13.055Zm0-11.3A4.77,4.77,0,1,0,11.3,6.528,4.775,4.775,0,0,0,6.528,1.758Z" transform="translate(8.473 8.473)" fill="#8f9bb3"/>
  </g>
</svg>
