<svg xmlns="http://www.w3.org/2000/svg" width="23.586" height="29.844" viewBox="0 0 23.586 29.844">
  <g id="user-7" transform="translate(0 -0.074)" opacity="0.5">
    <path id="Fill_1" data-name="Fill 1" d="M18.071,0a9.032,9.032,0,0,1-1.378,1.4,9.887,9.887,0,0,1,4.98,8.577c0,1.981-4.34,3.533-9.88,3.533s-9.88-1.552-9.88-3.533A9.887,9.887,0,0,1,6.892,1.4,9.021,9.021,0,0,1,5.514,0,11.794,11.794,0,0,0,0,9.978c0,1.271.7,3.043,4.012,4.264a23.363,23.363,0,0,0,7.78,1.181,23.364,23.364,0,0,0,7.781-1.181c3.316-1.221,4.012-2.993,4.012-4.264A11.8,11.8,0,0,0,18.071,0Z" transform="translate(0 14.495)" fill="#8f9bb3"/>
    <path id="Fill_2" data-name="Fill 2" d="M6.578,15.682A6.045,6.045,0,0,1,1.9,13.355,8.647,8.647,0,0,1,0,7.841,8.647,8.647,0,0,1,1.9,2.327,6.044,6.044,0,0,1,6.578,0a6.046,6.046,0,0,1,4.683,2.327,8.646,8.646,0,0,1,1.9,5.514,8.647,8.647,0,0,1-1.9,5.513A6.045,6.045,0,0,1,6.578,15.682Zm0-13.769c-2.573,0-4.666,2.659-4.666,5.928s2.093,5.928,4.666,5.928,4.667-2.659,4.667-5.928S9.151,1.913,6.578,1.913Z" transform="translate(5.214 0.074)" fill="#8f9bb3"/>
  </g>
</svg>
